<?xml version="1.0" encoding="UTF-8"?>
<!DOCTYPE svg PUBLIC "-//W3C//DTD SVG 1.1//EN" "http://www.w3.org/Graphics/SVG/1.1/DTD/svg11.dtd">
<svg xmlns="http://www.w3.org/2000/svg" version="1.1" width="639px" height="639px" style="shape-rendering:geometricPrecision; text-rendering:geometricPrecision; image-rendering:optimizeQuality; fill-rule:evenodd; clip-rule:evenodd" xmlns:xlink="http://www.w3.org/1999/xlink">
<g><path style="opacity:1" fill="#c3c3c3" d="M -0.5,4.5 C 212.5,4.5 425.5,4.5 638.5,4.5C 638.5,29.8333 638.5,55.1667 638.5,80.5C 628.448,86.0659 619.115,92.5659 610.5,100C 608.527,100.495 606.527,100.662 604.5,100.5C 604.561,96.9513 603.727,93.6179 602,90.5C 597.545,85.0946 593.712,79.2613 590.5,73C 577.422,74.4587 566.589,80.292 558,90.5C 551.58,100.341 544.913,110.007 538,119.5C 536.068,123.798 534.234,128.132 532.5,132.5C 533.188,136.447 534.188,140.28 535.5,144C 532.774,144.182 530.107,144.682 527.5,145.5C 539.152,146.333 550.819,146.833 562.5,147C 587.539,154.229 612.872,155.395 638.5,150.5C 638.5,255.5 638.5,360.5 638.5,465.5C 634.434,465.693 630.434,465.36 626.5,464.5C 619.397,462.895 612.063,462.228 604.5,462.5C 596.054,461.304 587.721,459.638 579.5,457.5C 576.091,456.097 572.425,455.43 568.5,455.5C 567.833,455.5 567.167,455.5 566.5,455.5C 560.416,453.823 554.082,453.156 547.5,453.5C 546.5,453.5 545.5,453.5 544.5,453.5C 542.708,452.691 540.708,452.191 538.5,452C 504.502,451.5 470.502,451.333 436.5,451.5C 433.913,450.251 431.246,449.251 428.5,448.5C 435.519,439.515 438.852,429.181 438.5,417.5C 444.26,394.778 449.26,371.778 453.5,348.5C 453.5,348.167 453.5,347.833 453.5,347.5C 456.19,337.403 458.523,327.07 460.5,316.5C 460.5,315.5 460.5,314.5 460.5,313.5C 461.49,309.614 462.49,305.614 463.5,301.5C 463.5,300.5 463.5,299.5 463.5,298.5C 464.978,292.038 465.978,285.372 466.5,278.5C 466.826,244.094 466.493,209.76 465.5,175.5C 463.512,166.545 461.679,157.545 460,148.5C 452.594,132.433 446.094,116.099 440.5,99.5C 437.361,100.193 434.361,101.36 431.5,103C 429.513,104.319 428.346,106.152 428,108.5C 425.815,109.928 423.815,111.595 422,113.5C 419.249,117.402 416.749,121.402 414.5,125.5C 413.833,125.5 413.5,125.833 413.5,126.5C 406.851,133.794 401.185,141.794 396.5,150.5C 394.896,151.287 394.229,152.62 394.5,154.5C 390.297,151.398 385.63,149.398 380.5,148.5C 379.391,148.443 378.391,148.11 377.5,147.5C 376.656,145.241 374.989,144.241 372.5,144.5C 369.272,143.586 365.939,143.253 362.5,143.5C 362.03,142.307 361.03,141.64 359.5,141.5C 356.295,140.233 352.962,139.566 349.5,139.5C 345.821,139.276 342.154,138.942 338.5,138.5C 338.119,137.069 337.119,136.236 335.5,136C 320.105,135.07 304.772,135.57 289.5,137.5C 282.526,126.902 276.026,115.902 270,104.5C 266.853,101.532 264.186,98.1983 262,94.5C 260.594,89.3612 258.427,84.6946 255.5,80.5C 255.326,77.237 253.659,75.5704 250.5,75.5C 249.504,75.4142 248.671,75.7476 248,76.5C 243.89,83.0583 240.057,89.725 236.5,96.5C 236.5,96.8333 236.5,97.1667 236.5,97.5C 230.197,107.328 224.03,117.328 218,127.5C 216.002,131.33 214.502,135.33 213.5,139.5C 209.402,148.116 206.069,157.116 203.5,166.5C 202.069,167.78 201.402,169.447 201.5,171.5C 198.008,178.459 195.175,185.792 193,193.5C 188.4,208.896 185.233,224.563 183.5,240.5C 183.333,264.836 183.5,289.169 184,313.5C 185.533,327.697 188.033,341.697 191.5,355.5C 192.336,359.323 193.336,362.989 194.5,366.5C 194.649,371.575 195.315,376.575 196.5,381.5C 197.089,388.116 198.422,394.45 200.5,400.5C 200.5,401.167 200.5,401.833 200.5,402.5C 200.595,404.786 201.262,406.786 202.5,408.5C 202.5,410.833 202.5,413.167 202.5,415.5C 204.822,428.139 209.489,439.805 216.5,450.5C 215.167,450.167 213.833,449.833 212.5,449.5C 211.234,448.91 209.901,448.41 208.5,448C 172.784,447.196 137.118,448.196 101.5,451C 95.6724,452.039 90.0057,453.205 84.5,454.5C 81.8478,454.41 79.5145,455.076 77.5,456.5C 73.7307,456.244 70.0641,456.577 66.5,457.5C 60.0944,460.223 53.4277,462.39 46.5,464C 45.944,464.383 45.6107,464.883 45.5,465.5C 43.2841,465.275 41.6174,466.108 40.5,468C 33.78,469.125 27.1133,470.292 20.5,471.5C 15.0389,472.508 9.70552,473.508 4.5,474.5C 2.83333,474.5 1.16667,474.5 -0.5,474.5C -0.5,389.167 -0.5,303.833 -0.5,218.5C 14.7023,218.427 29.7023,216.594 44.5,213C 57.0694,208.313 66.5694,200.147 73,188.5C 76.5802,176.464 73.0802,167.464 62.5,161.5C 69.068,160.852 75.4013,159.352 81.5,157C 93.1049,145.266 98.1049,131.1 96.5,114.5C 96.8171,101.402 94.6504,88.7356 90,76.5C 86.0585,68.284 82.3918,59.9507 79,51.5C 77.8333,49 76,47.1667 73.5,46C 40.6691,39.2662 16.0025,50.0995 -0.5,78.5C -0.5,53.8333 -0.5,29.1667 -0.5,4.5 Z"/></g>
<g><path style="opacity:1" fill="#fefefe" d="M -0.5,218.5 C -0.5,171.833 -0.5,125.167 -0.5,78.5C 16.0025,50.0995 40.6691,39.2662 73.5,46C 76,47.1667 77.8333,49 79,51.5C 82.3918,59.9507 86.0585,68.284 90,76.5C 94.6504,88.7356 96.8171,101.402 96.5,114.5C 98.1049,131.1 93.1049,145.266 81.5,157C 75.4013,159.352 69.068,160.852 62.5,161.5C 73.0802,167.464 76.5802,176.464 73,188.5C 66.5694,200.147 57.0694,208.313 44.5,213C 29.7023,216.594 14.7023,218.427 -0.5,218.5 Z"/></g>
<g><path style="opacity:1" fill="#fefefe" d="M 638.5,80.5 C 638.5,103.833 638.5,127.167 638.5,150.5C 612.872,155.395 587.539,154.229 562.5,147C 550.819,146.833 539.152,146.333 527.5,145.5C 530.107,144.682 532.774,144.182 535.5,144C 534.188,140.28 533.188,136.447 532.5,132.5C 534.234,128.132 536.068,123.798 538,119.5C 544.913,110.007 551.58,100.341 558,90.5C 566.589,80.292 577.422,74.4587 590.5,73C 593.712,79.2613 597.545,85.0946 602,90.5C 603.727,93.6179 604.561,96.9513 604.5,100.5C 606.527,100.662 608.527,100.495 610.5,100C 619.115,92.5659 628.448,86.0659 638.5,80.5 Z"/></g>
<g><path style="opacity:1" fill="#6f91bd" d="M 250.5,75.5 C 253.659,75.5704 255.326,77.237 255.5,80.5C 253.944,81.2909 252.61,81.6242 251.5,81.5C 263.041,101.555 274.874,121.555 287,141.5C 287.333,140.167 287.667,138.833 288,137.5C 288.383,138.056 288.883,138.389 289.5,138.5C 304.108,136.615 318.774,136.115 333.5,137C 335.154,137.608 336.821,138.108 338.5,138.5C 342.154,138.942 345.821,139.276 349.5,139.5C 350.263,140.268 351.263,140.768 352.5,141C 348.5,142 348.5,143 352.5,144C 354.441,144.743 356.274,144.576 358,143.5C 358.308,144.308 358.808,144.975 359.5,145.5C 360.265,144.388 361.265,143.721 362.5,143.5C 365.939,143.253 369.272,143.586 372.5,144.5C 371.909,145.151 371.243,145.818 370.5,146.5C 373.682,148.348 376.849,150.348 380,152.5C 380.167,152.167 380.333,151.833 380.5,151.5C 379.019,150.52 377.685,149.353 376.5,148C 376.728,147.601 377.062,147.435 377.5,147.5C 378.391,148.11 379.391,148.443 380.5,148.5C 381.842,149.793 383.509,150.626 385.5,151C 381.812,152.381 382.145,153.548 386.5,154.5C 387.086,154.291 387.586,153.957 388,153.5C 388.973,155.64 390.473,157.307 392.5,158.5C 393.711,157.726 393.711,156.893 392.5,156C 393.416,155.722 394.082,155.222 394.5,154.5C 394.229,152.62 394.896,151.287 396.5,150.5C 397.376,150.369 398.043,150.702 398.5,151.5C 397.674,152.451 397.508,153.451 398,154.5C 401.186,150.127 403.853,145.46 406,140.5C 409.483,137.34 412.316,133.673 414.5,129.5C 413.873,128.583 413.539,127.583 413.5,126.5C 413.5,125.833 413.833,125.5 414.5,125.5C 416.092,124.398 416.925,125.065 417,127.5C 419.952,124.146 422.452,120.479 424.5,116.5C 428.342,112.79 432.175,109.123 436,105.5C 436.333,104.5 436.667,103.5 437,102.5C 442.154,114.588 446.821,126.921 451,139.5C 452.718,141.819 454.218,144.319 455.5,147C 457.762,158.215 460.262,169.382 463,180.5C 463.05,178.256 463.883,176.589 465.5,175.5C 466.493,209.76 466.826,244.094 466.5,278.5C 464.78,280.658 463.947,283.325 464,286.5C 463.667,284.167 463.333,281.833 463,279.5C 461.181,285.971 461.347,292.305 463.5,298.5C 463.5,299.5 463.5,300.5 463.5,301.5C 462.883,301.611 462.383,301.944 462,302.5C 461.667,300.167 461.333,297.833 461,295.5C 460.541,299.419 459.708,303.252 458.5,307C 459.033,309.226 459.7,311.393 460.5,313.5C 460.5,314.5 460.5,315.5 460.5,316.5C 459.883,316.611 459.383,316.944 459,317.5C 458.667,315.167 458.333,312.833 458,310.5C 457.054,315.163 456.221,319.83 455.5,324.5C 454.417,329.101 453.084,333.767 451.5,338.5C 451.667,339.167 451.833,339.833 452,340.5C 452.232,339.263 452.732,338.263 453.5,337.5C 453.5,340.833 453.5,344.167 453.5,347.5C 453.5,347.833 453.5,348.167 453.5,348.5C 452.153,347.829 450.986,347.829 450,348.5C 448.614,354.16 447.447,359.827 446.5,365.5C 443.961,378.197 441.294,390.864 438.5,403.5C 439.39,405.782 439.556,408.115 439,410.5C 438.667,409.5 438.333,408.5 438,407.5C 436.199,411.691 435.533,416.025 436,420.5C 436.17,418.285 436.837,416.285 438,414.5C 438.483,415.448 438.649,416.448 438.5,417.5C 438.852,429.181 435.519,439.515 428.5,448.5C 419.948,446.524 411.281,445.19 402.5,444.5C 400.343,443.593 398.01,442.927 395.5,442.5C 358.905,441.34 322.238,441.174 285.5,442C 275.878,443.201 266.211,444.535 256.5,446C 245.104,449.384 233.438,451.217 221.5,451.5C 218.228,445.537 214.895,439.537 211.5,433.5C 211.113,431.726 210.447,430.059 209.5,428.5C 210.875,426.837 210.542,425.503 208.5,424.5C 208.833,423.833 209.167,423.167 209.5,422.5C 208.119,420.365 207.119,418.032 206.5,415.5C 205.749,416.376 205.249,417.376 205,418.5C 204.764,416.881 203.931,415.881 202.5,415.5C 202.5,413.167 202.5,410.833 202.5,408.5C 204.092,407.398 204.925,408.065 205,410.5C 205.167,409.167 205.333,407.833 205.5,406.5C 204.442,402.88 203.608,399.214 203,395.5C 203.03,398.361 202.197,400.695 200.5,402.5C 200.5,401.833 200.5,401.167 200.5,400.5C 201.515,393.113 201.015,385.78 199,378.5C 198.764,380.119 197.931,381.119 196.5,381.5C 195.315,376.575 194.649,371.575 194.5,366.5C 194.312,364.897 194.812,363.563 196,362.5C 196.573,366.848 197.24,371.181 198,375.5C 198.435,370.551 197.935,365.718 196.5,361C 197.815,359.605 197.481,358.605 195.5,358C 192.38,344.566 189.88,330.733 188,316.5C 188.474,328.844 190.307,341.011 193.5,353C 193.316,354.376 192.649,355.209 191.5,355.5C 188.033,341.697 185.533,327.697 184,313.5C 183.5,289.169 183.333,264.836 183.5,240.5C 185.22,238.342 186.053,235.675 186,232.5C 186.333,235.167 186.667,237.833 187,240.5C 187.585,235.489 188.251,230.489 189,225.5C 189.424,223.485 190.258,221.651 191.5,220C 189.897,218.093 190.23,216.593 192.5,215.5C 192.167,214.833 191.833,214.167 191.5,213.5C 192.5,211.5 193.5,209.5 194.5,207.5C 193.125,205.837 193.458,204.503 195.5,203.5C 195.5,201.5 195.5,199.5 195.5,197.5C 197.68,189.973 200.346,182.306 203.5,174.5C 202.388,173.735 201.721,172.735 201.5,171.5C 201.402,169.447 202.069,167.78 203.5,166.5C 204.376,166.369 205.043,166.702 205.5,167.5C 204.833,168.833 204.167,170.167 203.5,171.5C 203.846,172.696 204.346,172.696 205,171.5C 209.215,161.983 212.548,152.316 215,142.5C 214.667,142.833 214.333,143.167 214,143.5C 213.51,142.207 213.343,140.873 213.5,139.5C 214.496,139.414 215.329,139.748 216,140.5C 222.698,126.777 230.198,113.444 238.5,100.5C 237.388,99.7348 236.721,98.7348 236.5,97.5C 236.5,97.1667 236.5,96.8333 236.5,96.5C 237.75,96.5774 238.583,97.244 239,98.5C 241.911,93.2489 245.244,88.2489 249,83.5C 250.401,80.7844 250.901,78.1177 250.5,75.5 Z"/></g>
<g><path style="opacity:1" fill="#908ec0" d="M 250.5,75.5 C 250.901,78.1177 250.401,80.7844 249,83.5C 245.244,88.2489 241.911,93.2489 239,98.5C 238.583,97.244 237.75,96.5774 236.5,96.5C 240.057,89.725 243.89,83.0583 248,76.5C 248.671,75.7476 249.504,75.4142 250.5,75.5 Z"/></g>
<g><path style="opacity:1" fill="#9195c3" d="M 255.5,80.5 C 258.427,84.6946 260.594,89.3612 262,94.5C 264.186,98.1983 266.853,101.532 270,104.5C 276.026,115.902 282.526,126.902 289.5,137.5C 289.5,137.833 289.5,138.167 289.5,138.5C 288.883,138.389 288.383,138.056 288,137.5C 287.667,138.833 287.333,140.167 287,141.5C 274.874,121.555 263.041,101.555 251.5,81.5C 252.61,81.6242 253.944,81.2909 255.5,80.5 Z"/></g>
<g><path style="opacity:1" fill="#9293c2" d="M 465.5,175.5 C 463.883,176.589 463.05,178.256 463,180.5C 460.262,169.382 457.762,158.215 455.5,147C 454.218,144.319 452.718,141.819 451,139.5C 446.821,126.921 442.154,114.588 437,102.5C 436.667,103.5 436.333,104.5 436,105.5C 432.175,109.123 428.342,112.79 424.5,116.5C 422.452,120.479 419.952,124.146 417,127.5C 416.925,125.065 416.092,124.398 414.5,125.5C 416.749,121.402 419.249,117.402 422,113.5C 423.815,111.595 425.815,109.928 428,108.5C 428.346,106.152 429.513,104.319 431.5,103C 434.361,101.36 437.361,100.193 440.5,99.5C 446.094,116.099 452.594,132.433 460,148.5C 461.679,157.545 463.512,166.545 465.5,175.5 Z"/></g>
<g><path style="opacity:1" fill="#fcadc8" d="M 240.5,107.5 C 241.873,107.343 243.207,107.51 244.5,108C 250.504,114.803 254.67,122.636 257,131.5C 259,134.833 261,138.167 263,141.5C 263.287,143.891 263.787,146.224 264.5,148.5C 253.415,150.068 242.582,149.068 232,145.5C 231.667,145.833 231.333,146.167 231,146.5C 232.466,138.944 233.799,131.278 235,123.5C 236.569,118.039 238.402,112.706 240.5,107.5 Z"/></g>
<g><path style="opacity:1" fill="#908ebf" d="M 236.5,97.5 C 236.721,98.7348 237.388,99.7348 238.5,100.5C 230.198,113.444 222.698,126.777 216,140.5C 215.329,139.748 214.496,139.414 213.5,139.5C 214.502,135.33 216.002,131.33 218,127.5C 224.03,117.328 230.197,107.328 236.5,97.5 Z"/></g>
<g><path style="opacity:1" fill="#fcadc8" d="M 425.5,130.5 C 430.678,130.712 435.678,131.712 440.5,133.5C 441.802,141.916 443.635,150.249 446,158.5C 446.246,161.89 446.746,165.223 447.5,168.5C 447.167,168.833 446.833,169.167 446.5,169.5C 434.98,165.411 423.647,160.744 412.5,155.5C 417.136,147.224 421.47,138.891 425.5,130.5 Z"/></g>
<g><path style="opacity:1" fill="#aaaec2" d="M 338.5,138.5 C 336.821,138.108 335.154,137.608 333.5,137C 318.774,136.115 304.108,136.615 289.5,138.5C 289.5,138.167 289.5,137.833 289.5,137.5C 304.772,135.57 320.105,135.07 335.5,136C 337.119,136.236 338.119,137.069 338.5,138.5 Z"/></g>
<g><path style="opacity:1" fill="#9591c2" d="M 413.5,126.5 C 413.539,127.583 413.873,128.583 414.5,129.5C 412.316,133.673 409.483,137.34 406,140.5C 403.853,145.46 401.186,150.127 398,154.5C 397.508,153.451 397.674,152.451 398.5,151.5C 398.043,150.702 397.376,150.369 396.5,150.5C 401.185,141.794 406.851,133.794 413.5,126.5 Z"/></g>
<g><path style="opacity:1" fill="#9f97c3" d="M 349.5,139.5 C 352.962,139.566 356.295,140.233 359.5,141.5C 361.03,141.64 362.03,142.307 362.5,143.5C 361.265,143.721 360.265,144.388 359.5,145.5C 358.808,144.975 358.308,144.308 358,143.5C 356.274,144.576 354.441,144.743 352.5,144C 348.5,143 348.5,142 352.5,141C 351.263,140.768 350.263,140.268 349.5,139.5 Z"/></g>
<g><path style="opacity:1" fill="#9f94c4" d="M 372.5,144.5 C 374.989,144.241 376.656,145.241 377.5,147.5C 377.062,147.435 376.728,147.601 376.5,148C 377.685,149.353 379.019,150.52 380.5,151.5C 380.333,151.833 380.167,152.167 380,152.5C 376.849,150.348 373.682,148.348 370.5,146.5C 371.243,145.818 371.909,145.151 372.5,144.5 Z"/></g>
<g><path style="opacity:1" fill="#9898c3" d="M 380.5,148.5 C 385.63,149.398 390.297,151.398 394.5,154.5C 394.082,155.222 393.416,155.722 392.5,156C 393.711,156.893 393.711,157.726 392.5,158.5C 390.473,157.307 388.973,155.64 388,153.5C 387.586,153.957 387.086,154.291 386.5,154.5C 382.145,153.548 381.812,152.381 385.5,151C 383.509,150.626 381.842,149.793 380.5,148.5 Z"/></g>
<g><path style="opacity:1" fill="#9392c1" d="M 213.5,139.5 C 213.343,140.873 213.51,142.207 214,143.5C 214.333,143.167 214.667,142.833 215,142.5C 212.548,152.316 209.215,161.983 205,171.5C 204.346,172.696 203.846,172.696 203.5,171.5C 204.167,170.167 204.833,168.833 205.5,167.5C 205.043,166.702 204.376,166.369 203.5,166.5C 206.069,157.116 209.402,148.116 213.5,139.5 Z"/></g>
<g><path style="opacity:1" fill="#030304" d="M 268.5,181.5 C 278.909,182.423 283.909,188.257 283.5,199C 283.614,205.436 281.281,210.769 276.5,215C 270.733,217.7 265.9,216.533 262,211.5C 257.333,203.167 257.333,194.833 262,186.5C 263.965,184.45 266.132,182.783 268.5,181.5 Z"/></g>
<g><path style="opacity:1" fill="#040406" d="M 360.5,192.5 C 367.801,191.966 374.801,193.132 381.5,196C 390.32,205.073 388.653,211.74 376.5,216C 367.919,218.368 359.585,217.702 351.5,214C 343.5,208 343.5,202 351.5,196C 354.571,194.704 357.571,193.538 360.5,192.5 Z"/></g>
<g><path style="opacity:1" fill="#9194c2" d="M 201.5,171.5 C 201.721,172.735 202.388,173.735 203.5,174.5C 200.346,182.306 197.68,189.973 195.5,197.5C 195.5,199.5 195.5,201.5 195.5,203.5C 193.458,204.503 193.125,205.837 194.5,207.5C 193.5,209.5 192.5,211.5 191.5,213.5C 191.833,214.167 192.167,214.833 192.5,215.5C 190.23,216.593 189.897,218.093 191.5,220C 190.258,221.651 189.424,223.485 189,225.5C 188.251,230.489 187.585,235.489 187,240.5C 186.667,237.833 186.333,235.167 186,232.5C 186.053,235.675 185.22,238.342 183.5,240.5C 185.233,224.563 188.4,208.896 193,193.5C 195.175,185.792 198.008,178.459 201.5,171.5 Z"/></g>
<g><path style="opacity:1" fill="#9692c1" d="M 466.5,278.5 C 465.978,285.372 464.978,292.038 463.5,298.5C 461.347,292.305 461.181,285.971 463,279.5C 463.333,281.833 463.667,284.167 464,286.5C 463.947,283.325 464.78,280.658 466.5,278.5 Z"/></g>
<g><path style="opacity:1" fill="#000000" d="M 252.5,294.5 C 290.544,294.927 328.544,296.427 366.5,299C 397.536,301.851 399.536,310.851 372.5,326C 354.34,335.83 335.84,344.997 317,353.5C 314.659,352.993 314.159,351.826 315.5,350C 337.429,340.036 358.762,329.036 379.5,317C 381.759,315.285 383.926,313.452 386,311.5C 386.781,310.056 386.614,308.723 385.5,307.5C 375.82,304.139 365.82,302.306 355.5,302C 321.177,300.397 286.844,299.063 252.5,298C 251.316,296.855 251.316,295.688 252.5,294.5 Z"/></g>
<g><path style="opacity:1" fill="#9a93c2" d="M 463.5,301.5 C 462.49,305.614 461.49,309.614 460.5,313.5C 459.7,311.393 459.033,309.226 458.5,307C 459.708,303.252 460.541,299.419 461,295.5C 461.333,297.833 461.667,300.167 462,302.5C 462.383,301.944 462.883,301.611 463.5,301.5 Z"/></g>
<g><path style="opacity:1" fill="#bc9fcd" d="M 455.5,324.5 C 455.729,329.005 455.063,333.339 453.5,337.5C 452.732,338.263 452.232,339.263 452,340.5C 451.833,339.833 451.667,339.167 451.5,338.5C 453.084,333.767 454.417,329.101 455.5,324.5 Z"/></g>
<g><path style="opacity:1" fill="#8a91c0" d="M 460.5,316.5 C 458.523,327.07 456.19,337.403 453.5,347.5C 453.5,344.167 453.5,340.833 453.5,337.5C 455.063,333.339 455.729,329.005 455.5,324.5C 456.221,319.83 457.054,315.163 458,310.5C 458.333,312.833 458.667,315.167 459,317.5C 459.383,316.944 459.883,316.611 460.5,316.5 Z"/></g>
<g><path style="opacity:1" fill="#a99ac7" d="M 194.5,366.5 C 193.336,362.989 192.336,359.323 191.5,355.5C 192.649,355.209 193.316,354.376 193.5,353C 190.307,341.011 188.474,328.844 188,316.5C 189.88,330.733 192.38,344.566 195.5,358C 197.481,358.605 197.815,359.605 196.5,361C 197.935,365.718 198.435,370.551 198,375.5C 197.24,371.181 196.573,366.848 196,362.5C 194.812,363.563 194.312,364.897 194.5,366.5 Z"/></g>
<g><path style="opacity:1" fill="#be9ecc" d="M 446.5,365.5 C 447.124,365.917 447.457,366.584 447.5,367.5C 445.243,379.816 442.243,391.816 438.5,403.5C 441.294,390.864 443.961,378.197 446.5,365.5 Z"/></g>
<g><path style="opacity:1" fill="#8c90bf" d="M 453.5,348.5 C 449.26,371.778 444.26,394.778 438.5,417.5C 438.649,416.448 438.483,415.448 438,414.5C 436.837,416.285 436.17,418.285 436,420.5C 435.533,416.025 436.199,411.691 438,407.5C 438.333,408.5 438.667,409.5 439,410.5C 439.556,408.115 439.39,405.782 438.5,403.5C 442.243,391.816 445.243,379.816 447.5,367.5C 447.457,366.584 447.124,365.917 446.5,365.5C 447.447,359.827 448.614,354.16 450,348.5C 450.986,347.829 452.153,347.829 453.5,348.5 Z"/></g>
<g><path style="opacity:1" fill="#998dbf" d="M 200.5,400.5 C 198.422,394.45 197.089,388.116 196.5,381.5C 197.931,381.119 198.764,380.119 199,378.5C 201.015,385.78 201.515,393.113 200.5,400.5 Z"/></g>
<g><path style="opacity:1" fill="#9b96c4" d="M 202.5,408.5 C 201.262,406.786 200.595,404.786 200.5,402.5C 202.197,400.695 203.03,398.361 203,395.5C 203.608,399.214 204.442,402.88 205.5,406.5C 205.333,407.833 205.167,409.167 205,410.5C 204.925,408.065 204.092,407.398 202.5,408.5 Z"/></g>
<g><path style="opacity:1" fill="#9193c2" d="M 202.5,415.5 C 203.931,415.881 204.764,416.881 205,418.5C 205.249,417.376 205.749,416.376 206.5,415.5C 207.119,418.032 208.119,420.365 209.5,422.5C 209.167,423.167 208.833,423.833 208.5,424.5C 210.542,425.503 210.875,426.837 209.5,428.5C 210.447,430.059 211.113,431.726 211.5,433.5C 214.895,439.537 218.228,445.537 221.5,451.5C 221.167,451.5 220.833,451.5 220.5,451.5C 219.432,450.566 218.099,450.232 216.5,450.5C 209.489,439.805 204.822,428.139 202.5,415.5 Z"/></g>
<g><path style="opacity:1" fill="#000000" d="M 395.5,442.5 C 395.611,443.117 395.944,443.617 396.5,444C 398.473,444.495 400.473,444.662 402.5,444.5C 411.281,445.19 419.948,446.524 428.5,448.5C 431.246,449.251 433.913,450.251 436.5,451.5C 472.343,452.22 508.343,452.886 544.5,453.5C 545.5,453.5 546.5,453.5 547.5,453.5C 553.63,454.747 559.963,455.414 566.5,455.5C 567.167,455.5 567.833,455.5 568.5,455.5C 571.909,456.903 575.575,457.57 579.5,457.5C 587.721,459.638 596.054,461.304 604.5,462.5C 611.62,463.928 618.953,464.594 626.5,464.5C 630.434,465.36 634.434,465.693 638.5,465.5C 638.5,466.167 638.5,466.833 638.5,467.5C 633.167,468.167 633.167,468.833 638.5,469.5C 638.5,524.167 638.5,578.833 638.5,633.5C 425.5,633.5 212.5,633.5 -0.5,633.5C -0.5,580.5 -0.5,527.5 -0.5,474.5C 1.16667,474.5 2.83333,474.5 4.5,474.5C 7.8499,474.665 11.1832,474.498 14.5,474C 16.8516,473.76 18.8516,472.927 20.5,471.5C 27.1133,470.292 33.78,469.125 40.5,468C 41.6174,466.108 43.2841,465.275 45.5,465.5C 51.3085,464.136 51.6418,464.636 46.5,467C 45.5494,467.718 45.3828,468.551 46,469.5C 49.7958,467.012 53.9624,465.512 58.5,465C 61.948,463.05 65.6147,461.55 69.5,460.5C 68.2713,459.719 66.938,459.219 65.5,459C 66.056,458.617 66.3893,458.117 66.5,457.5C 70.0641,456.577 73.7307,456.244 77.5,456.5C 80.1522,456.59 82.4855,455.924 84.5,454.5C 90.0057,453.205 95.6724,452.039 101.5,451C 137.118,448.196 172.784,447.196 208.5,448C 209.901,448.41 211.234,448.91 212.5,449.5C 212.611,450.117 212.944,450.617 213.5,451C 215.81,451.497 218.143,451.663 220.5,451.5C 220.833,451.5 221.167,451.5 221.5,451.5C 233.438,451.217 245.104,449.384 256.5,446C 266.211,444.535 275.878,443.201 285.5,442C 322.238,441.174 358.905,441.34 395.5,442.5 Z"/></g>
<g><path style="opacity:1" fill="#3c4553" d="M 395.5,442.5 C 398.01,442.927 400.343,443.593 402.5,444.5C 400.473,444.662 398.473,444.495 396.5,444C 395.944,443.617 395.611,443.117 395.5,442.5 Z"/></g>
<g><path style="opacity:1" fill="#393939" d="M 393.5,444.5 C 396.097,444.533 397.097,445.533 396.5,447.5C 394.787,447.121 393.787,446.121 393.5,444.5 Z"/></g>
<g><path style="opacity:1" fill="#505050" d="M 263.5,447.5 C 265.337,447.639 265.67,448.306 264.5,449.5C 263.702,449.043 263.369,448.376 263.5,447.5 Z"/></g>
<g><path style="opacity:1" fill="#4a4859" d="M 212.5,449.5 C 213.833,449.833 215.167,450.167 216.5,450.5C 218.099,450.232 219.432,450.566 220.5,451.5C 218.143,451.663 215.81,451.497 213.5,451C 212.944,450.617 212.611,450.117 212.5,449.5 Z"/></g>
<g><path style="opacity:1" fill="#505050" d="M 250.5,449.5 C 252.337,449.639 252.67,450.306 251.5,451.5C 250.702,451.043 250.369,450.376 250.5,449.5 Z"/></g>
<g><path style="opacity:1" fill="#4b4b4b" d="M 143.5,450.5 C 144.675,450.281 145.675,450.614 146.5,451.5C 144.948,452.798 143.948,452.465 143.5,450.5 Z"/></g>
<g><path style="opacity:1" fill="#505050" d="M 246.5,450.5 C 248.337,450.639 248.67,451.306 247.5,452.5C 246.702,452.043 246.369,451.376 246.5,450.5 Z"/></g>
<g><path style="opacity:1" fill="#4f4f4f" d="M 436.5,451.5 C 470.502,451.333 504.502,451.5 538.5,452C 540.708,452.191 542.708,452.691 544.5,453.5C 508.343,452.886 472.343,452.22 436.5,451.5 Z"/></g>
<g><path style="opacity:1" fill="#4b4b4b" d="M 137.5,451.5 C 138.675,451.281 139.675,451.614 140.5,452.5C 138.948,453.798 137.948,453.465 137.5,451.5 Z"/></g>
<g><path style="opacity:1" fill="#4f4f4f" d="M 115.5,452.5 C 116.978,452.238 118.311,452.571 119.5,453.5C 118.833,453.833 118.167,454.167 117.5,454.5C 116.287,454.253 115.62,453.586 115.5,452.5 Z"/></g>
<g><path style="opacity:1" fill="#565656" d="M 210.5,451.5 C 211.643,451.908 212.643,452.575 213.5,453.5C 211.604,454.639 210.604,453.973 210.5,451.5 Z"/></g>
<g><path style="opacity:1" fill="#4d4d4d" d="M 101.5,453.5 C 103.337,453.639 103.67,454.306 102.5,455.5C 101.702,455.043 101.369,454.376 101.5,453.5 Z"/></g>
<g><path style="opacity:1" fill="#585858" d="M 547.5,453.5 C 554.082,453.156 560.416,453.823 566.5,455.5C 559.963,455.414 553.63,454.747 547.5,453.5 Z"/></g>
<g><path style="opacity:1" fill="#3b3b3b" d="M 84.5,454.5 C 82.4855,455.924 80.1522,456.59 77.5,456.5C 79.5145,455.076 81.8478,454.41 84.5,454.5 Z"/></g>
<g><path style="opacity:1" fill="#4d4d4d" d="M 97.5,454.5 C 99.337,454.639 99.6704,455.306 98.5,456.5C 97.7025,456.043 97.3691,455.376 97.5,454.5 Z"/></g>
<g><path style="opacity:1" fill="#555555" d="M 535.5,454.5 C 540.814,454.239 541.314,454.906 537,456.5C 535.97,456.164 535.47,455.497 535.5,454.5 Z"/></g>
<g><path style="opacity:1" fill="#4a4a4a" d="M 544.5,455.5 C 546.857,455.337 549.19,455.503 551.5,456C 548.816,458.145 546.483,457.978 544.5,455.5 Z"/></g>
<g><path style="opacity:1" fill="#4e4e4e" d="M 568.5,455.5 C 572.425,455.43 576.091,456.097 579.5,457.5C 575.575,457.57 571.909,456.903 568.5,455.5 Z"/></g>
<g><path style="opacity:1" fill="#575757" d="M 554.5,456.5 C 561.108,456.271 561.608,456.937 556,458.5C 554.97,458.164 554.47,457.497 554.5,456.5 Z"/></g>
<g><path style="opacity:1" fill="#343434" d="M 566.5,457.5 C 569.874,457.674 573.207,458.174 576.5,459C 575.892,459.87 575.059,460.37 574,460.5C 570.974,460.287 568.474,459.287 566.5,457.5 Z"/></g>
<g><path style="opacity:1" fill="#404040" d="M 582.5,460.5 C 587.747,461.978 593.08,463.145 598.5,464C 597.391,464.638 596.225,465.138 595,465.5C 591.333,464.5 587.667,463.5 584,462.5C 582.97,462.164 582.47,461.497 582.5,460.5 Z"/></g>
<g><path style="opacity:1" fill="#252525" d="M 66.5,457.5 C 66.3893,458.117 66.056,458.617 65.5,459C 66.938,459.219 68.2713,459.719 69.5,460.5C 65.6147,461.55 61.948,463.05 58.5,465C 53.9624,465.512 49.7958,467.012 46,469.5C 45.3828,468.551 45.5494,467.718 46.5,467C 51.6418,464.636 51.3085,464.136 45.5,465.5C 45.6107,464.883 45.944,464.383 46.5,464C 53.4277,462.39 60.0944,460.223 66.5,457.5 Z"/></g>
<g><path style="opacity:1" fill="#565656" d="M 604.5,462.5 C 612.063,462.228 619.397,462.895 626.5,464.5C 618.953,464.594 611.62,463.928 604.5,462.5 Z"/></g>
<g><path style="opacity:1" fill="#565656" d="M 611.5,465.5 C 614.187,465.336 616.854,465.503 619.5,466C 617.5,466.5 615.5,467 613.5,467.5C 612.287,467.253 611.62,466.586 611.5,465.5 Z"/></g>
<g><path style="opacity:1" fill="#3d3d3d" d="M 626.5,466.5 C 628.527,466.338 630.527,466.505 632.5,467C 630.121,469.142 628.121,468.976 626.5,466.5 Z"/></g>
<g><path style="opacity:1" fill="#4f4f4f" d="M 638.5,467.5 C 638.5,468.167 638.5,468.833 638.5,469.5C 633.167,468.833 633.167,468.167 638.5,467.5 Z"/></g>
<g><path style="opacity:1" fill="#4d4d4d" d="M 20.5,471.5 C 18.8516,472.927 16.8516,473.76 14.5,474C 11.1832,474.498 7.8499,474.665 4.5,474.5C 9.70552,473.508 15.0389,472.508 20.5,471.5 Z"/></g>
<g><path style="opacity:1" fill="#4d4d4d" d="M 2.5,476.5 C 3.97782,476.238 5.31116,476.571 6.5,477.5C 5.83333,477.833 5.16667,478.167 4.5,478.5C 3.28665,478.253 2.61998,477.586 2.5,476.5 Z"/></g>
</svg>
